<svg width="46" height="75" viewBox="0 0 46 75" fill="none" xmlns="http://www.w3.org/2000/svg">
<g clip-path="url(#clip0_48_1268)">
<path d="M0.0825195 0C0.0825195 25 0.189904 50 0.189904 75" stroke="white" stroke-miterlimit="10"/>
<path d="M1.53955 0V38.7124C1.53955 44.2453 2.34741 49.6222 3.0644 55.1009C3.93834 61.7755 3.97965 68.2695 3.97965 74.9984" stroke="white" stroke-miterlimit="10"/>
<path d="M2.99683 0C2.99683 13.2902 2.99683 26.582 2.99683 39.8722C2.99683 45.3476 4.50185 50.1051 5.97714 55.3489C6.76022 58.1318 7.75311 60.8243 7.76633 63.7239C7.7845 67.4826 7.76633 71.2413 7.76633 75" stroke="white" stroke-miterlimit="10"/>
<path d="M4.45386 0C4.45386 13.6779 4.45386 27.3541 4.45386 41.032C4.45386 44.0942 4.51333 46.1822 5.81185 48.9765C6.83778 51.1828 7.86536 53.3891 8.89129 55.5953C10.099 58.1893 11.5346 60.5089 11.5561 63.3953C11.5842 67.2624 11.5561 71.1312 11.5561 75" stroke="white" stroke-miterlimit="10"/>
<path d="M5.91095 0C5.91095 14.0639 5.91095 28.1279 5.91095 42.1902C5.91095 45.438 5.84322 47.2582 7.715 49.954C9.07796 51.9171 10.4426 53.8786 11.8055 55.8418C13.4642 58.2287 15.3161 60.1114 15.3442 63.0668C15.3822 67.044 15.3442 71.0228 15.3442 74.9984" stroke="white" stroke-miterlimit="10"/>
<path d="M7.36981 0C7.36981 14.45 7.36981 28.9 7.36981 43.35C7.36981 46.7933 7.15339 48.4393 9.61992 50.9331C11.3199 52.6515 13.0199 54.3698 14.7215 56.0882C16.8295 58.2189 19.0995 59.658 19.1358 62.7398C19.1837 66.8255 19.1358 70.9144 19.1358 75" stroke="white" stroke-miterlimit="10"/>
<path d="M8.82694 0C8.82694 14.836 8.82694 29.6737 8.82694 44.5098C8.82694 45.8684 8.35115 48.1009 8.82694 49.4037C9.27961 50.6423 10.9664 51.5097 11.9593 52.2276C13.9533 53.6716 15.949 55.1157 17.9447 56.5597C18.7823 57.1659 19.6331 57.7573 20.4591 58.3782C22.5704 59.9701 22.9256 59.8485 22.9256 62.7021C22.9256 66.8008 22.9256 70.8996 22.9256 75" stroke="white" stroke-miterlimit="10"/>
<path d="M10.284 0C10.284 15.2237 10.284 30.4459 10.284 45.6696C10.284 46.9773 9.74877 49.4579 10.284 50.69C10.8177 51.9171 12.8629 52.5989 13.9351 53.1542C16.2595 54.36 18.584 55.5641 20.9101 56.7699C21.8865 57.2759 22.8744 57.7622 23.8392 58.2879C26.2892 59.6235 26.7138 59.3623 26.7138 62.3834C26.7138 66.5889 26.7138 70.7945 26.7138 75.0016" stroke="white" stroke-miterlimit="10"/>
<path d="M11.7411 0C11.7411 15.6098 11.7411 31.218 11.7411 46.8278C11.7411 48.0878 11.1596 50.8099 11.7411 51.9763C12.3507 53.1969 14.7958 53.6733 15.9109 54.079C18.5658 55.045 21.2207 56.011 23.8755 56.9769C24.989 57.3827 26.1157 57.7655 27.2209 58.1942C29.9617 59.2588 30.5036 58.8744 30.5036 62.0597C30.5036 66.3721 30.5036 70.6844 30.5036 74.9984" stroke="white" stroke-miterlimit="10"/>
<path d="M13.1982 0C13.1982 15.9959 13.1982 31.9917 13.1982 47.9876C13.1982 49.0143 12.7306 53.0211 13.446 53.9246C13.973 54.5867 16.8773 54.7608 17.6587 54.9514C20.5664 55.6594 23.474 56.3691 26.38 57.0771C27.9081 57.4501 29.4363 57.8213 30.9644 58.1942C33.8489 58.8974 34.29 58.9631 34.29 62.0417C34.29 66.3622 34.29 70.6811 34.29 75.0016" stroke="white" stroke-miterlimit="10"/>
<path d="M14.6554 0C14.6554 16.3819 14.6554 32.7638 14.6554 49.1474C14.6554 50.0296 14.1895 54.4667 14.9313 55.206C15.607 55.8795 18.7112 55.7629 19.6099 55.896C22.8381 56.3724 26.0678 56.8472 29.296 57.3236C30.9926 57.5733 32.6893 57.8246 34.3876 58.0743C37.4852 58.531 38.08 58.4784 38.08 61.7279C38.08 66.1519 38.08 70.576 38.08 75" stroke="white" stroke-miterlimit="10"/>
<path d="M16.1125 0C16.1125 16.768 16.1125 33.5376 16.1125 50.3056C16.1125 51.5311 15.4979 54.4635 16.1125 55.5773C16.9534 57.1001 19.9122 56.7256 21.2934 56.8192C24.7528 57.0558 28.2122 57.294 31.6716 57.5306C33.8589 57.68 36.0479 57.8312 38.2353 57.9807C40.6241 58.145 41.2024 58.2222 41.8698 60.4646C42.4117 62.2864 41.8698 64.905 41.8698 66.855C41.8698 69.5689 41.8698 72.2845 41.8698 74.9984" stroke="white" stroke-miterlimit="10"/>
<path d="M17.5696 0C17.5696 17.1557 17.5696 34.3097 17.5696 51.4654C17.5696 52.6761 16.9302 55.7711 17.5696 56.8586C18.4716 58.3963 21.8633 57.7786 23.218 57.7819C26.9913 57.7918 30.7629 57.8033 34.5362 57.8131C36.9218 57.8197 39.309 57.8263 41.6946 57.8328C42.5173 57.8345 43.3384 57.8378 44.1611 57.8394C45.5125 58.1548 46.0114 58.9187 45.6579 60.1311C46.2427 61.9513 45.6579 64.6981 45.6579 66.6678V74.9984" stroke="white" stroke-miterlimit="10"/>
</g>
<defs>
<clipPath id="clip0_48_1268">
<rect width="46" height="75" fill="white"/>
</clipPath>
</defs>
</svg>
