<svg width="101" height="47" viewBox="0 0 101 47" fill="none" xmlns="http://www.w3.org/2000/svg">
<path d="M50.4622 11.9924C50.4622 11.9924 47.1919 3.08875 40.2867 1.99865C33.3815 0.908548 29.7479 1.99865 29.7479 1.99865C29.7479 1.99865 43.3753 14.3166 42.1035 16.5156C40.8317 18.7147 50.461 11.9924 50.461 11.9924H50.4622Z" fill="#C90010"/>
<path d="M50.4622 34.12C50.4622 34.12 47.1919 43.0236 40.2867 44.1137C33.3815 45.2038 29.7479 44.1137 29.7479 44.1137C29.7479 44.1137 43.3753 31.7958 42.1035 29.5968C40.8317 27.3977 50.461 34.12 50.461 34.12H50.4622Z" fill="#C90010"/>
<path d="M72.1768 39.4995C52.3792 39.4995 31.1388 32.3195 31.1388 23.463C31.1388 14.6065 52.3792 7.42529 72.1768 7.42529C85.8951 7.42529 92.6233 15.1256 98.6495 19.8541C100.99 21.691 100.99 25.2326 98.6495 27.0695C92.6233 31.798 85.8963 39.4983 72.1768 39.4983V39.4995Z" fill="#C5E8FF"/>
<path d="M98.6495 19.8542C93.7866 16.0377 88.4658 10.2887 79.384 8.20996C81.865 18.2262 81.865 28.6966 79.384 38.7139C88.4658 36.6364 93.7866 30.8862 98.6495 27.0697C99.8199 26.1518 100.405 24.8069 100.405 23.4619C100.405 22.117 99.8199 20.7721 98.6495 19.8542Z" fill="#FD0028"/>
<path d="M57.3497 23.4619C57.3497 28.1134 61.1205 31.8842 65.772 31.8842C70.4235 31.8842 74.1943 28.1134 74.1943 23.4619C74.1943 18.8104 70.4235 15.0396 65.772 15.0396C61.1205 15.0396 57.3497 18.8104 57.3497 23.4619Z" fill="#FF3546"/>
<path d="M59.8164 23.4623C59.8164 26.7514 62.4827 29.4177 65.7718 29.4177C69.061 29.4177 71.7273 26.7514 71.7273 23.4623C71.7273 20.1732 69.061 17.5068 65.7718 17.5068C62.4827 17.5068 59.8164 20.1732 59.8164 23.4623Z" fill="#9ACCEF"/>
<path d="M24.505 31.3651C16.4697 31.3651 0.00016031 23.4631 0.00016031 23.4631C0.00016031 23.4631 16.4697 15.561 24.505 15.561C32.5404 15.561 33.0925 19.0991 33.0925 23.4631C33.0925 27.827 32.5404 31.3651 24.505 31.3651Z" fill="#F2DD19"/>
<path d="M28.4797 26.9635C24.9192 26.9635 17.6223 23.462 17.6223 23.462C17.6223 23.462 24.9192 19.9604 28.4797 19.9604C32.0402 19.9604 32.2844 21.5284 32.2844 23.462C32.2844 25.3956 32.0402 26.9635 28.4797 26.9635Z" fill="#EF7F1B"/>
<path d="M33.627 18.6896V28.0558C33.627 29.3547 32.5723 30.4082 31.2745 30.4082H30.943V16.5142H31.4526C32.6525 16.5142 33.627 17.4886 33.627 18.6885V18.6896Z" fill="#FF050B"/>
<path d="M23.7605 1.99852C23.7605 3.10227 29.1703 3.99704 35.8436 3.99704C42.517 3.99704 47.9268 3.10227 47.9268 1.99852C47.9268 0.894768 42.517 0 35.8436 0C29.1703 0 23.7605 0.894768 23.7605 1.99852Z" fill="#FF050B"/>
<path d="M23.7605 44.1123C23.7605 45.216 29.1703 46.1108 35.8436 46.1108C42.517 46.1108 47.9268 45.216 47.9268 44.1123C47.9268 43.0085 42.517 42.1138 35.8436 42.1138C29.1703 42.1138 23.7605 43.0085 23.7605 44.1123Z" fill="#FF050B"/>
<path opacity="0.22" d="M98.6494 27.0695C100.185 25.8638 100.714 23.9231 100.233 22.2124C93.2119 27.5992 80.4068 31.2034 65.7718 31.2034C51.1368 31.2034 38.301 27.5898 31.2849 22.1924C31.1882 22.6112 31.1387 23.0347 31.1387 23.4618C31.1387 32.3183 52.3791 39.4983 72.1767 39.4983C85.895 39.4983 92.6232 31.798 98.6494 27.0695Z" fill="black"/>
<path d="M37.7644 15.1372C33.6565 17.564 31.14 20.4143 31.14 23.4628C31.14 26.5113 33.6565 29.3616 37.7644 31.7884V15.1372Z" fill="#FF050B"/>
<path d="M22.3684 23.4619C22.3684 24.5657 27.7782 25.4604 34.4515 25.4604C41.1249 25.4604 46.5347 24.5657 46.5347 23.4619C46.5347 22.3581 41.1249 21.4634 34.4515 21.4634C27.7782 21.4634 22.3684 22.3581 22.3684 23.4619Z" fill="#FF050B"/>
<path d="M72.9509 10.3905C68.095 10.7373 66.8008 10.5273 66.8008 9.77702C66.8008 9.02669 70.1159 8.80371 72.8235 8.80371C75.531 8.80371 78.3176 9.64016 78.3176 10.3917C78.3176 11.1432 75.6514 10.1994 72.9521 10.3917L72.9509 10.3905Z" fill="white"/>
<path d="M63.6496 10.4881C63.6496 10.8992 63.9829 11.2325 64.394 11.2325C64.8051 11.2325 65.1384 10.8992 65.1384 10.4881C65.1384 10.0769 64.8051 9.74365 64.394 9.74365C63.9829 9.74365 63.6496 10.0769 63.6496 10.4881Z" fill="white"/>
</svg>
