<svg width="395" height="853" viewBox="0 0 395 853" fill="none" xmlns="http://www.w3.org/2000/svg">
<g clip-path="url(#clip0_40_1197)">
<path d="M103.657 423.802C103.657 423.802 28.0575 451.168 18.5428 509.654C9.02815 568.14 18.1235 598.983 18.1235 598.983C18.1235 598.983 123.075 483.964 141.664 494.832C160.253 505.699 103.657 423.812 103.657 423.812L103.657 423.802Z" fill="#C90010"/>
<path d="M291.215 424.683C291.215 424.683 366.554 452.757 375.519 511.33C384.484 569.902 375.1 600.659 375.1 600.659C375.1 600.659 271.233 484.66 252.543 495.352C233.852 506.045 291.215 424.693 291.215 424.693L291.215 424.683Z" fill="#C90010"/>
<path d="M337.678 240.839C336.89 408.647 275.186 588.399 200.117 588.047C125.048 587.695 65.0234 407.371 65.8111 239.563C66.357 123.284 131.894 66.5611 172.213 15.6698C187.876 -4.09691 217.896 -3.95599 233.373 15.9569C273.212 67.2245 338.214 124.55 337.668 240.839L337.678 240.839Z" fill="#C5E8FF"/>
<path d="M172.213 15.6698C139.67 56.7375 90.729 101.608 72.7478 178.505C157.746 157.873 246.495 158.29 331.305 179.718C314.057 102.657 265.529 57.3283 233.373 15.9569C225.639 6.00051 214.263 0.987047 202.863 0.933532C191.463 0.880018 180.04 5.78645 172.213 15.6698Z" fill="#FD0028"/>
<path d="M201.15 365.879C240.577 366.065 272.689 334.253 272.874 294.825C273.059 255.398 241.247 223.286 201.82 223.101C162.393 222.916 130.281 254.728 130.096 294.155C129.911 333.582 161.723 365.694 201.15 365.879Z" fill="#FF3546"/>
<path d="M201.248 344.97C229.127 345.101 251.833 322.606 251.964 294.727C252.095 266.848 229.601 244.142 201.722 244.011C173.843 243.88 151.136 266.374 151.005 294.253C150.875 322.132 173.369 344.839 201.248 344.97Z" fill="#9ACCEF"/>
<path d="M266.832 644.591C266.512 712.7 198.878 851.984 198.878 851.984C198.878 851.984 132.554 712.071 132.874 643.962C133.193 575.853 163.205 571.314 200.195 571.487C237.184 571.661 267.152 576.482 266.832 644.591Z" fill="#F2DD19"/>
<path d="M229.681 610.726C229.539 640.906 199.569 702.616 199.569 702.616C199.569 702.616 170.18 640.627 170.321 610.447C170.463 580.268 183.763 578.26 200.152 578.337C216.542 578.414 229.822 580.546 229.681 610.726Z" fill="#EF7F1B"/>
<path d="M159.756 566.767L239.145 567.14C250.155 567.192 259.043 576.174 258.992 587.173L258.978 589.983L141.21 589.431L141.23 585.111C141.278 574.941 149.576 566.72 159.746 566.767L159.756 566.767Z" fill="#FF050B"/>
<path d="M17.8852 649.732C27.2408 649.776 35.0403 603.957 35.3058 547.393C35.5714 490.829 28.2024 444.939 18.8468 444.895C9.4912 444.851 1.69173 490.67 1.4262 547.234C1.16067 603.798 8.52963 649.688 17.8852 649.732Z" fill="#FF050B"/>
<path d="M374.851 651.408C384.207 651.452 392.006 605.633 392.272 549.069C392.537 492.504 385.168 446.614 375.813 446.57C366.457 446.526 358.658 492.345 358.392 548.91C358.127 605.474 365.496 651.364 374.851 651.408Z" fill="#FF050B"/>
<path opacity="0.22" d="M233.373 15.9569C223.214 2.88912 206.785 -1.66805 192.266 2.34383C237.646 62.0675 267.686 170.75 267.104 294.798C266.522 418.847 235.381 527.502 189.353 586.757C192.899 587.593 196.487 588.03 200.107 588.047C275.176 588.399 336.88 408.647 337.668 240.839C338.214 124.56 273.213 67.2245 233.373 15.9569Z" fill="black"/>
<path d="M129.811 531.556C150.218 566.473 174.277 587.916 200.117 588.037C225.957 588.158 250.217 566.942 270.95 532.219L129.811 531.556Z" fill="#FF050B"/>
<path d="M199.758 662.386C209.113 662.43 216.913 616.611 217.178 560.047C217.444 503.483 210.075 457.592 200.719 457.549C191.364 457.505 183.564 503.323 183.299 559.888C183.033 616.452 190.402 662.342 199.758 662.386Z" fill="#FF050B"/>
<path d="M90.9717 233.121C93.7184 274.294 91.8869 285.256 85.527 285.226C79.1671 285.196 77.409 257.087 77.5167 234.138C77.6245 211.188 84.8253 187.601 91.1952 187.631C97.5651 187.661 89.4591 210.223 90.9817 233.111L90.9717 233.121Z" fill="white"/>
<path d="M91.4316 311.964C94.9165 311.98 97.7548 309.169 97.7712 305.684C97.7875 302.199 94.9757 299.36 91.4908 299.344C88.006 299.328 85.1676 302.14 85.1513 305.624C85.1349 309.109 87.9467 311.948 91.4316 311.964Z" fill="white"/>
</g>
<defs>
<clipPath id="clip0_40_1197">
<rect width="390.86" height="851.05" fill="white" transform="translate(3.99512) rotate(0.268962)"/>
</clipPath>
</defs>
</svg>
